<?xml version="1.0" standalone="no"?>
<!DOCTYPE svg PUBLIC "-//W3C//DTD SVG 20010904//EN"
 "http://www.w3.org/TR/2001/REC-SVG-20010904/DTD/svg10.dtd">
<svg version="1.0" xmlns="http://www.w3.org/2000/svg"
 width="500.000000pt" height="500.000000pt" viewBox="0 0 500.000000 500.000000"
 preserveAspectRatio="xMidYMid meet">

<g transform="translate(0.000000,500.000000) scale(0.100000,-0.100000)"
fill="#000000" stroke="none">
<path d="M2394 4236 c-110 -51 -174 -151 -174 -272 0 -112 58 -205 157 -252
l35 -17 -7 -110 c-3 -60 -9 -118 -11 -127 -5 -16 3 -18 70 -18 l76 0 0 29 c0
81 -23 337 -30 345 -15 15 -27 -33 -35 -135 -11 -149 -26 -144 -19 6 l6 130
-38 20 c-50 26 -76 73 -76 135 0 65 26 109 82 138 140 72 284 -76 211 -216
-11 -20 -36 -48 -56 -61 -20 -13 -34 -30 -31 -37 3 -7 8 -71 11 -141 9 -193
12 -213 37 -213 19 0 20 4 15 44 -4 25 -9 80 -13 123 l-6 78 53 35 c35 22 68
57 94 95 39 58 40 63 40 145 0 68 -5 94 -22 130 -72 145 -234 209 -369 146z"/>
<path d="M2110 3415 c-16 -9 -30 -10 -42 -4 -23 12 -85 11 -93 -1 -4 -7 -12
-7 -25 0 -30 16 -85 12 -103 -8 -12 -13 -17 -37 -17 -80 0 -52 3 -63 22 -76
28 -20 67 -20 95 -1 18 13 22 13 33 0 7 -8 27 -15 45 -15 18 0 38 7 45 15 11
13 15 13 33 0 27 -19 58 -19 82 -1 14 10 25 11 37 5 11 -6 134 -9 286 -9 147
1 278 1 292 1 14 0 40 -3 58 -7 21 -4 40 -1 55 9 20 13 26 13 42 1 25 -18 69
-18 85 1 11 13 15 13 33 0 28 -19 67 -19 95 1 18 13 22 25 22 72 0 91 -46 131
-113 97 -21 -10 -34 -12 -41 -5 -14 14 -79 13 -94 -2 -9 -9 -15 -9 -24 0 -16
16 -80 16 -96 0 -9 -9 -15 -9 -24 0 -9 9 -87 12 -289 12 -236 0 -278 -2 -289
-15 -11 -13 -15 -14 -29 -1 -26 22 -54 26 -81 11z"/>
<path d="M2346 3189 c-3 -17 -6 -42 -6 -56 0 -21 3 -23 23 -16 12 4 87 6 166
5 l144 -3 -7 23 c-3 13 -6 35 -6 51 l0 27 -154 0 -153 0 -7 -31z"/>
<path d="M2342 3093 c-49 -5 -53 -25 -6 -33 l29 -5 0 -147 c0 -80 -4 -150 -8
-155 -16 -16 -57 46 -57 86 0 84 -78 143 -159 121 -54 -14 -123 -77 -152 -137
-45 -93 -33 -321 21 -411 11 -18 20 -36 20 -41 0 -4 -40 -31 -88 -60 -48 -28
-107 -70 -131 -91 -38 -35 -50 -40 -91 -40 -42 0 -52 -4 -75 -31 -22 -27 -26
-40 -24 -93 1 -44 -6 -80 -24 -131 -34 -90 -35 -134 -3 -164 l25 -23 17 58 c9
33 29 87 45 122 24 53 32 63 48 57 11 -3 36 1 55 9 43 18 60 55 52 108 -6 36
-5 37 70 93 41 32 96 69 121 83 l46 25 36 -43 c50 -61 141 -149 174 -168 25
-15 37 -42 19 -42 -4 0 -30 -19 -57 -41 -62 -51 -132 -146 -170 -230 -51 -113
-36 -266 34 -344 41 -45 39 -48 -30 -41 -185 20 -426 125 -559 244 -51 46 -49
52 28 77 l54 17 -57 34 c-109 66 -183 141 -265 270 l-28 45 -22 -58 c-51 -135
-60 -292 -24 -414 l16 -52 42 42 c49 48 70 51 90 13 17 -32 126 -137 206 -199
62 -47 259 -151 400 -213 52 -22 114 -50 138 -61 62 -28 173 -103 234 -157 49
-44 140 -170 153 -212 4 -11 9 -20 13 -20 4 1 29 39 56 86 34 58 69 102 110
138 69 61 196 146 247 166 102 40 298 131 394 184 132 72 220 140 311 241 38
41 71 75 75 75 3 0 24 -18 47 -39 23 -22 44 -37 46 -33 2 4 11 42 20 84 27
132 19 229 -31 366 l-26 73 -26 -48 c-62 -113 -148 -208 -249 -274 -47 -30
-51 -35 -35 -46 9 -7 22 -13 29 -13 7 0 25 -5 40 -10 l27 -11 -44 -45 c-54
-56 -129 -105 -236 -156 -106 -50 -214 -77 -333 -85 -83 -5 -102 -3 -142 15
-70 31 -75 45 -83 284 l-7 207 104 0 c108 0 216 18 313 51 43 15 71 18 111 14
41 -5 59 -3 78 10 48 31 51 114 5 162 -31 33 -72 39 -117 17 -30 -15 -40 -27
-54 -68 l-16 -50 -79 -23 c-57 -18 -113 -25 -210 -29 l-131 -6 -6 54 c-3 30
-8 156 -11 280 l-5 227 74 35 c124 59 218 167 202 231 -16 63 -96 115 -217
143 l-70 15 3 47 c3 42 5 46 31 49 15 2 27 9 27 16 0 20 -234 32 -378 19z
m152 -510 c-3 -268 -9 -493 -13 -499 -4 -9 -16 -8 -43 3 l-38 15 0 106 c0 142
20 834 24 847 2 6 20 12 40 13 l37 3 -7 -488z m90 425 c8 -39 18 -943 10 -972
-11 -47 -31 -11 -38 72 -9 100 4 922 15 922 5 0 11 -10 13 -22z m-380 -140 c2
-7 10 -35 16 -61 14 -51 84 -141 120 -152 17 -5 20 -16 20 -73 0 -106 2 -103
-118 -142 -59 -19 -112 -36 -119 -38 -16 -4 -48 60 -67 135 -38 146 -7 284 74
329 32 17 69 18 74 2z m559 -14 c52 -18 97 -52 97 -72 0 -31 -61 -92 -122
-123 -33 -17 -61 -29 -63 -27 -3 3 -8 224 -6 241 1 8 35 1 94 -19z m-415 -583
c-1 -60 -6 -113 -10 -116 -18 -19 -178 127 -178 162 0 12 137 62 173 63 17 0
19 -9 15 -109z m97 -285 l40 -14 -2 -257 c-1 -260 -14 -378 -48 -430 -10 -16
-10 -35 0 -95 18 -106 27 -230 18 -230 -4 0 -21 25 -38 56 -38 72 -123 150
-200 184 -33 15 -143 58 -245 96 -204 76 -311 130 -432 220 -160 118 -235 232
-263 397 -9 53 1 46 19 -15 19 -66 90 -188 146 -250 79 -91 249 -202 385 -254
91 -34 248 -64 336 -64 175 0 215 79 226 453 3 119 9 217 12 217 3 0 24 -7 46
-14z m-122 -475 c-7 -63 -12 -77 -34 -93 -45 -34 -101 4 -145 97 -28 59 -30
102 -8 175 25 84 64 149 129 214 l60 61 3 -190 c1 -104 -1 -223 -5 -264z m267
260 c0 -184 15 -352 35 -391 16 -30 90 -100 106 -100 6 0 -7 -21 -28 -47 -64
-78 -79 -104 -114 -193 -32 -80 -34 -83 -37 -50 -2 19 1 85 8 145 7 64 11 254
10 453 0 229 3 342 10 342 6 0 10 -56 10 -159z m1126 78 c-19 -72 -66 -160
-118 -217 -105 -116 -313 -241 -502 -301 -121 -39 -150 -36 -35 3 281 96 488
250 590 436 26 47 53 102 60 123 20 57 23 27 5 -44z"/>
</g>
</svg>
